<?xml version="1.0" encoding="iso-8859-1"?>
<!-- Generator: Adobe Illustrator 19.0.0, SVG Export Plug-In . SVG Version: 6.00 Build 0)  -->
<svg version="1.1" id="Layer_1" xmlns="http://www.w3.org/2000/svg" xmlns:xlink="http://www.w3.org/1999/xlink" x="0px" y="0px"
	 viewBox="0 0 512 512" style="enable-background:new 0 0 512 512;" xml:space="preserve">
<rect x="10.199" y="213.021" style="fill:#FF7099;" width="491.602" height="85.959"/>
<g>
	<path style="fill:#DB006E;" d="M501.801,309.177H10.199C4.566,309.177,0,304.61,0,298.977v-85.955
		c0-5.633,4.566-10.199,10.199-10.199h491.602c5.632,0,10.199,4.566,10.199,10.199v85.955
		C512,304.61,507.433,309.177,501.801,309.177z M20.398,288.778h471.203v-65.556H20.398V288.778z"/>
	<path style="fill:#DB006E;" d="M420.607,278.438H259.06c-5.633,0-10.199-4.566-10.199-10.199s4.566-10.199,10.199-10.199h161.547
		c5.632,0,10.199,4.566,10.199,10.199S426.239,278.438,420.607,278.438z"/>
	<path style="fill:#DB006E;" d="M470.37,278.438h-10.815c-5.632,0-10.199-4.566-10.199-10.199s4.567-10.199,10.199-10.199h10.815
		c5.632,0,10.199,4.566,10.199,10.199S476.002,278.438,470.37,278.438z"/>
</g>
<g>
</g>
<g>
</g>
<g>
</g>
<g>
</g>
<g>
</g>
<g>
</g>
<g>
</g>
<g>
</g>
<g>
</g>
<g>
</g>
<g>
</g>
<g>
</g>
<g>
</g>
<g>
</g>
<g>
</g>
</svg>
